# This file uses centimeters as units for non-parametric coordinates.

mtllib Small Bush.mtl
g default
v 2.705732 0.617502 -2.547893
v 1.153120 -0.278570 -2.647332
v 2.252600 0.652758 -2.078729
v 2.568166 0.323449 -1.945406
v 1.715861 -0.117383 -1.980410
v 2.060783 -0.010822 -2.043104
v 2.241080 0.111555 -1.917779
v 1.819767 -0.260329 -2.142382
v 0.700590 -0.050363 -2.406430
v 1.690045 -0.331412 -2.370755
v 2.081829 0.882259 -2.191061
v 2.089970 0.465359 -2.955861
v 2.080166 0.895728 -2.432527
v 2.104086 0.721517 -2.852691
v 1.136421 0.878786 -2.446414
v 0.939242 0.722994 -2.238665
v 0.967413 0.498321 -1.934287
v 1.519685 0.512325 -1.908794
v 2.744224 0.238498 -2.215070
v 2.636729 0.128839 -2.458207
v 1.688018 0.314583 -1.904787
v 1.503652 0.079838 -1.941132
v 1.127460 0.319378 -1.805754
v 1.337979 -0.166709 -2.189606
v 1.213959 0.587660 -2.008470
v 2.497142 0.461453 -2.094636
v 2.388412 0.601092 -2.721422
v 2.090107 -0.117059 -2.809166
v 1.330541 -0.176465 -2.723429
v 1.887176 -0.076068 -2.726690
v 1.745606 0.073576 -2.888179
v 1.693902 0.947782 -2.431926
v 1.753828 0.778655 -2.616924
v 0.984308 0.235760 -2.006941
v 1.888389 0.281456 -3.014757
v 1.481900 0.021105 -2.950411
v 2.565855 0.530484 -2.258781
v 2.048515 -0.220047 -2.400186
v 1.686089 0.486579 -2.944051
v 0.962716 0.704855 -2.772232
v 2.433648 -0.158373 -2.701046
v 2.663567 0.167015 -2.709631
v 2.278872 -0.267679 -2.616579
v 2.440255 -0.203829 -2.171949
v 0.658519 0.309937 -2.536283
v 1.010895 0.456511 -2.819426
v 0.693282 0.573150 -2.547219
v 0.857154 0.480965 -2.764879
v 1.022724 -0.144222 -2.576178
v 0.973868 0.061062 -2.850892
v 1.340067 0.747019 -2.235890
v 2.693125 -0.018592 -2.298590
v 2.076162 0.070396 -2.912402
v 1.140812 -0.250757 -2.199618
v 1.314290 -0.082212 -1.984552
v 2.757023 0.230487 -2.566847
v 2.608901 0.481619 -2.675366
v 1.485894 0.861541 -2.646889
v 2.510030 0.126176 -2.038585
v 1.692390 0.762703 -1.996204
v 0.947830 -0.211579 -2.394968
v 0.712240 0.224368 -2.222000
v 2.344736 0.218115 -2.843600
v 1.304299 0.273373 -3.005942
v 0.963432 -0.027160 -2.110829
v 1.701470 -0.211800 -2.605094
v 2.573857 0.652094 -2.086215
v 1.900087 0.334769 -1.827863
v 2.348356 0.009701 -2.777860
v 1.142527 0.759146 -2.125407
v 0.689445 0.398666 -2.139646
v 2.247967 0.502797 -1.877159
v 2.484016 0.729816 -2.403890
vt 0.179373 0.198950
vt 0.149350 0.121056
vt 0.211996 0.120492
vt 0.070405 0.194051
vt 0.179481 0.029108
vt 0.241019 0.195356
vt 0.111263 0.252684
vt 0.100788 0.044167
vt 0.239689 0.253860
vt 0.316937 0.207604
vt 0.015463 0.189383
vt 0.180741 0.294394
vt 0.063416 0.107559
vt 0.304044 0.141197
vt 0.065393 0.310626
vt 0.080536 0.015892
vt 0.186529 0.370663
vt 0.289520 0.307798
vt 0.265536 0.096251
vt 0.180083 0.001975
vt 0.265294 0.414826
vt 0.348972 0.311373
vt 0.113215 0.421365
vt 0.326625 0.412656
vt 0.300860 0.466294
vt 0.086789 0.505665
vt 0.186869 0.517270
vt 0.001992 0.367569
vt 0.273794 0.503637
vt 0.027070 0.519003
vt 0.086566 0.550003
vt 0.268764 0.596439
vt 0.088042 0.597110
vt 0.158450 0.607756
vt 0.313022 0.525419
vt 0.347101 0.469784
vt 0.516077 0.514447
vt 0.547914 0.443048
vt 0.607124 0.463278
vt 0.455735 0.510175
vt 0.616743 0.406265
vt 0.611604 0.522063
vt 0.453334 0.468645
vt 0.515046 0.594943
vt 0.676991 0.464765
vt 0.515546 0.354941
vt 0.695715 0.363891
vt 0.591442 0.304492
vt 0.462746 0.306789
vt 0.669783 0.286714
vt 0.645360 0.191761
vt 0.405792 0.360569
vt 0.458400 0.245506
vt 0.358216 0.299747
vt 0.368799 0.415624
vt 0.571246 0.142979
vt 0.392998 0.199901
vt 0.507725 0.144664
vt 0.409782 0.147556
vt 0.522361 0.072807
vt 0.468086 0.052617
vt 0.571292 0.050215
vt 0.427515 0.069860
vt 0.477661 0.001975
vt 0.629921 0.075978
vt 0.356896 0.090771
vt 0.677798 0.192210
vt 0.209117 0.668367
vt 0.150373 0.611747
vt 0.271859 0.665966
vt 0.151495 0.691680
vt 0.194016 0.727678
vt 0.070161 0.641575
vt 0.079189 0.751889
vt 0.206564 0.824236
vt 0.107778 0.822297
vt 0.451312 0.730394
vt 0.573552 0.795906
vt 0.451306 0.783935
vt 0.549299 0.737942
vt 0.460573 0.822443
vt 0.626217 0.738445
vt 0.584911 0.859209
vt 0.659382 0.788590
vt 0.649840 0.656105
vt 0.532796 0.698482
vt 0.709735 0.644813
vt 0.487766 0.697879
vt 0.584137 0.598934
vt 0.534469 0.619187
vt 0.001992 0.920593
vt 0.102768 0.828227
vt 0.024427 0.989507
vt 0.423226 0.845280
vt 0.445863 0.899554
vt 0.397824 0.940125
vt 0.834675 0.859635
vt 0.886172 0.795871
vt 0.960273 0.821634
vt 0.787410 0.767967
vt 0.898885 0.679639
vt 0.767594 0.686143
vt 0.836728 0.585135
vt 0.715871 0.564900
vt 0.998008 0.567357
vt 0.839027 0.507958
vt 0.960731 0.680088
vt 0.962627 0.728870
vt 0.835363 0.320182
vt 0.767711 0.218900
vt 0.895883 0.210952
vt 0.836110 0.181278
vt 0.899387 0.326828
vt 0.772959 0.115131
vt 0.891827 0.111106
vt 0.873124 0.428015
vt 0.822864 0.377311
vt 0.994610 0.379849
vt 0.834507 0.001975
vt 0.776397 0.432946
vt 0.720426 0.215325
vt 0.710169 0.048724
vt 0.939235 0.058760
vt 0.792912 0.503966
vt 0.701861 0.373821
vt 0.989901 0.156710
vt 0.736762 0.411164
vt 0.216572 0.906813
vt 0.224410 0.845280
vt 0.307956 0.943267
vt 0.445171 0.683117
vt 0.302752 0.689853
vt 0.346385 0.611747
vt 0.409026 0.740414
vt 0.277995 0.658854
vt 0.353942 0.841288
vt 0.210155 0.828227
vt 0.134680 0.930864
vt 0.109379 0.829091
vt 0.391444 0.873114
vt 0.369009 0.942029
vt 0.315968 0.845280
vn 0.376767 -0.272691 -0.885260
vn 0.376767 -0.272691 -0.885260
vn 0.376767 -0.272691 -0.885260
vn 0.038236 0.573796 0.818105
vn 0.038236 0.573796 0.818105
vn 0.038236 0.573796 0.818105
vn 0.355365 -0.227974 0.906501
vn 0.355365 -0.227974 0.906501
vn 0.355365 -0.227974 0.906501
vn -0.763068 -0.184201 0.619514
vn -0.763068 -0.184201 0.619514
vn -0.763068 -0.184201 0.619514
vn -0.292909 0.880406 0.372948
vn -0.292909 0.880406 0.372948
vn -0.292909 0.880406 0.372948
vn -0.616719 0.471218 -0.630564
vn -0.616719 0.471218 -0.630564
vn -0.616719 0.471218 -0.630564
vn -0.653700 0.754794 -0.054419
vn -0.653700 0.754794 -0.054419
vn -0.653700 0.754794 -0.054419
vn 0.850133 -0.448182 0.276416
vn 0.850133 -0.448182 0.276416
vn 0.850133 -0.448182 0.276416
vn 0.488704 0.869266 0.074465
vn 0.488704 0.869266 0.074465
vn 0.488704 0.869266 0.074465
vn -0.593082 -0.254707 0.763792
vn -0.593082 -0.254707 0.763792
vn -0.593082 -0.254707 0.763792
vn 0.007500 0.971811 0.235642
vn 0.007500 0.971811 0.235642
vn 0.007500 0.971811 0.235642
vn 0.317617 0.846776 0.426720
vn 0.317618 0.846776 0.426720
vn 0.317617 0.846776 0.426720
vn 0.172919 0.166870 0.970697
vn 0.172919 0.166870 0.970697
vn 0.172919 0.166870 0.970697
vn 0.795263 0.605604 0.028300
vn 0.795263 0.605604 0.028300
vn 0.795263 0.605604 0.028300
vn 0.759564 -0.321564 -0.565384
vn 0.759564 -0.321564 -0.565384
vn 0.759564 -0.321564 -0.565384
vn 0.806942 0.148197 -0.571736
vn 0.806942 0.148197 -0.571736
vn 0.806942 0.148197 -0.571736
vn 0.508241 0.739273 0.441777
vn 0.508241 0.739273 0.441777
vn 0.508241 0.739273 0.441777
vn 0.551636 0.663079 0.505987
vn 0.551636 0.663079 0.505987
vn 0.551636 0.663079 0.505987
vn 0.150865 -0.104712 0.982993
vn 0.150865 -0.104712 0.982993
vn 0.150865 -0.104712 0.982993
vn 0.188929 -0.104698 0.976393
vn 0.188929 -0.104698 0.976393
vn 0.188929 -0.104698 0.976393
vn -0.154789 -0.861922 0.482835
vn -0.154789 -0.861923 0.482835
vn -0.154789 -0.861923 0.482835
vn 0.303572 -0.945004 0.121703
vn 0.303572 -0.945004 0.121703
vn 0.303572 -0.945004 0.121703
vn 0.575176 -0.714263 0.398748
vn 0.575176 -0.714263 0.398748
vn 0.575176 -0.714263 0.398748
vn 0.318715 -0.599879 0.733871
vn 0.318715 -0.599879 0.733871
vn 0.318715 -0.599879 0.733871
vn -0.165756 -0.575738 0.800656
vn -0.165756 -0.575738 0.800656
vn -0.165756 -0.575738 0.800656
vn 0.283851 -0.408353 0.867569
vn 0.283851 -0.408353 0.867569
vn 0.283851 -0.408353 0.867569
vn -0.077915 -0.654958 0.751638
vn -0.077915 -0.654958 0.751638
vn -0.077915 -0.654958 0.751638
vn 0.391504 -0.414735 0.821413
vn 0.391504 -0.414735 0.821413
vn 0.391504 -0.414735 0.821413
vn 0.380265 -0.484247 0.787974
vn 0.380265 -0.484247 0.787974
vn 0.380265 -0.484247 0.787974
vn 0.333827 -0.278283 -0.900621
vn 0.333827 -0.278283 -0.900621
vn 0.333827 -0.278283 -0.900621
vn 0.488636 0.815449 -0.310288
vn 0.488636 0.815449 -0.310288
vn 0.488636 0.815449 -0.310288
vn 0.373303 -0.114350 -0.920635
vn 0.373303 -0.114350 -0.920635
vn 0.373303 -0.114350 -0.920635
vn -0.073210 0.376062 -0.923698
vn -0.073210 0.376062 -0.923698
vn -0.073210 0.376062 -0.923698
vn 0.305256 -0.114689 -0.945339
vn 0.305256 -0.114689 -0.945339
vn 0.305256 -0.114689 -0.945339
vn -0.691380 -0.225845 -0.686285
vn -0.691380 -0.225845 -0.686285
vn -0.691380 -0.225845 -0.686285
vn 0.450834 -0.875368 -0.174583
vn 0.450834 -0.875368 -0.174583
vn 0.450834 -0.875368 -0.174583
vn -0.142934 -0.470492 -0.870751
vn -0.142934 -0.470492 -0.870751
vn -0.142934 -0.470492 -0.870751
vn -0.254253 -0.830613 0.495417
vn -0.254253 -0.830613 0.495417
vn -0.254253 -0.830613 0.495417
vn -0.052828 -0.985587 0.160707
vn -0.052828 -0.985587 0.160707
vn -0.052828 -0.985587 0.160707
vn -0.175167 0.550602 -0.816182
vn -0.175167 0.550602 -0.816182
vn -0.175167 0.550602 -0.816182
vn -0.378279 -0.800910 0.464163
vn -0.378279 -0.800911 0.464163
vn -0.378279 -0.800910 0.464163
vn -0.671596 -0.393122 0.628024
vn -0.671596 -0.393122 0.628024
vn -0.671596 -0.393122 0.628024
vn -0.553804 -0.413816 0.722536
vn -0.553804 -0.413816 0.722536
vn -0.553804 -0.413816 0.722536
vn 0.967490 0.231554 0.101712
vn 0.967490 0.231554 0.101712
vn 0.967490 0.231554 0.101712
vn 0.234856 -0.870361 -0.432798
vn 0.234856 -0.870361 -0.432798
vn 0.234856 -0.870361 -0.432798
vn -0.465576 -0.490005 -0.736976
vn -0.465576 -0.490005 -0.736976
vn -0.465576 -0.490005 -0.736976
vn 0.471559 0.087487 -0.877484
vn 0.471559 0.087487 -0.877484
vn 0.471559 0.087487 -0.877484
vn 0.317467 -0.439222 -0.840416
vn 0.317467 -0.439222 -0.840416
vn 0.317467 -0.439222 -0.840416
vn 0.136706 0.515705 0.845789
vn 0.136706 0.515705 0.845789
vn 0.136706 0.515705 0.845789
vn 0.243133 0.908656 0.339457
vn 0.243133 0.908656 0.339457
vn 0.243133 0.908656 0.339457
vn -0.333273 0.942790 -0.008759
vn -0.333273 0.942790 -0.008759
vn -0.333273 0.942790 -0.008759
vn -0.759016 -0.579025 -0.297699
vn -0.759016 -0.579025 -0.297699
vn -0.759016 -0.579025 -0.297699
vn -0.317699 0.104734 -0.942390
vn -0.317699 0.104734 -0.942390
vn -0.317699 0.104734 -0.942390
vn -0.466379 -0.748728 -0.471060
vn -0.466379 -0.748728 -0.471060
vn -0.466379 -0.748728 -0.471060
vn -0.309874 -0.245174 0.918623
vn -0.309874 -0.245174 0.918623
vn -0.309874 -0.245174 0.918623
vn -0.029839 -0.226021 0.973665
vn -0.029839 -0.226022 0.973665
vn -0.029839 -0.226021 0.973665
vn -0.084814 -0.924660 0.371229
vn -0.084814 -0.924660 0.371229
vn -0.084814 -0.924660 0.371229
vn -0.110436 0.915854 -0.386024
vn -0.110436 0.915854 -0.386024
vn -0.110436 0.915854 -0.386024
vn 0.015024 0.339058 -0.940645
vn 0.015024 0.339058 -0.940645
vn 0.015024 0.339058 -0.940645
vn -0.285720 0.743477 -0.604653
vn -0.285720 0.743477 -0.604653
vn -0.285720 0.743477 -0.604653
vn 0.286687 0.684371 -0.670408
vn 0.286687 0.684371 -0.670408
vn 0.286687 0.684371 -0.670408
vn 0.367470 0.818129 -0.442302
vn 0.367470 0.818129 -0.442302
vn 0.367470 0.818129 -0.442302
vn -0.342204 0.878314 0.333857
vn -0.342204 0.878314 0.333857
vn -0.342204 0.878314 0.333857
vn -0.054339 -0.534274 -0.843563
vn -0.054339 -0.534274 -0.843563
vn -0.054339 -0.534274 -0.843563
vn -0.598612 0.617011 0.510844
vn -0.598612 0.617011 0.510844
vn -0.598612 0.617011 0.510844
vn -0.511932 -0.259534 0.818882
vn -0.511932 -0.259534 0.818882
vn -0.511932 -0.259534 0.818882
vn -0.437143 0.703807 0.559966
vn -0.437143 0.703807 0.559966
vn -0.437143 0.703807 0.559966
vn -0.292060 -0.919992 -0.261370
vn -0.292061 -0.919992 -0.261370
vn -0.292061 -0.919992 -0.261370
vn -0.785297 0.513988 0.345145
vn -0.785297 0.513988 0.345145
vn -0.785297 0.513988 0.345145
vn -0.100773 0.620269 0.777889
vn -0.100773 0.620269 0.777889
vn -0.100773 0.620269 0.777889
vn 0.544563 0.158618 0.823584
vn 0.544563 0.158618 0.823584
vn 0.544563 0.158618 0.823584
vn 0.307673 -0.165197 0.937042
vn 0.307673 -0.165197 0.937042
vn 0.307673 -0.165197 0.937042
vn 0.764212 0.389937 -0.513740
vn 0.764212 0.389937 -0.513740
vn 0.764212 0.389937 -0.513740
vn 0.922638 -0.059595 -0.381034
vn 0.922638 -0.059595 -0.381034
vn 0.922638 -0.059595 -0.381034
vn -0.491116 -0.718121 0.493059
vn -0.491116 -0.718121 0.493059
vn -0.491116 -0.718121 0.493059
vn -0.068585 -0.484060 -0.872343
vn -0.068585 -0.484060 -0.872343
vn -0.068585 -0.484060 -0.872343
vn -0.598130 -0.656826 0.459152
vn -0.598130 -0.656826 0.459152
vn -0.598130 -0.656826 0.459152
vn 0.164919 -0.276124 0.946867
vn 0.164919 -0.276124 0.946867
vn 0.164919 -0.276124 0.946867
vn 0.023464 -0.170929 0.985004
vn 0.023464 -0.170929 0.985004
vn 0.023464 -0.170929 0.985004
vn 0.070626 0.535040 0.841869
vn 0.070626 0.535040 0.841869
vn 0.070626 0.535040 0.841869
vn 0.664889 -0.347027 0.661434
vn 0.664889 -0.347027 0.661434
vn 0.664889 -0.347027 0.661434
vn 0.446354 0.004516 0.894845
vn 0.446354 0.004516 0.894845
vn 0.446354 0.004516 0.894845
vn -0.175026 0.552431 -0.814976
vn -0.175026 0.552431 -0.814976
vn -0.175026 0.552431 -0.814976
vn 0.886060 -0.043104 -0.461563
vn 0.886060 -0.043104 -0.461563
vn 0.886060 -0.043104 -0.461563
vn 0.023156 -0.053413 0.998304
vn 0.023156 -0.053413 0.998304
vn 0.023156 -0.053413 0.998304
vn -0.291909 0.770576 0.566570
vn -0.291909 0.770576 0.566570
vn -0.291909 0.770576 0.566570
vn -0.480929 0.565610 0.669920
vn -0.480929 0.565610 0.669919
vn -0.480929 0.565610 0.669920
vn 0.012401 0.815645 0.578419
vn 0.012401 0.815645 0.578419
vn 0.012401 0.815645 0.578419
vn -0.264334 -0.902067 0.341179
vn -0.264334 -0.902067 0.341179
vn -0.264334 -0.902067 0.341179
vn -0.267546 0.961945 0.055500
vn -0.267546 0.961945 0.055500
vn -0.267546 0.961945 0.055500
vn 0.412003 0.456330 -0.788680
vn 0.412003 0.456330 -0.788680
vn 0.412003 0.456330 -0.788680
vn 0.501524 0.299294 -0.811725
vn 0.501524 0.299294 -0.811725
vn 0.501524 0.299294 -0.811725
vn 0.628141 -0.402038 0.666186
vn 0.628141 -0.402038 0.666186
vn 0.628141 -0.402038 0.666186
vn 0.100421 -0.365317 0.925451
vn 0.100421 -0.365317 0.925451
vn 0.100421 -0.365317 0.925451
vn -0.360731 -0.514246 0.778090
vn -0.360731 -0.514246 0.778090
vn -0.360731 -0.514246 0.778090
vn -0.412403 -0.462822 -0.784678
vn -0.412403 -0.462822 -0.784678
vn -0.412403 -0.462822 -0.784678
vn 0.139185 -0.791036 -0.595726
vn 0.139185 -0.791036 -0.595726
vn 0.139185 -0.791036 -0.595726
vn -0.055068 -0.755991 -0.652262
vn -0.055068 -0.755991 -0.652262
vn -0.055068 -0.755991 -0.652262
vn 0.243083 0.910434 0.334695
vn 0.243083 0.910434 0.334695
vn 0.243083 0.910434 0.334695
vn 0.246506 -0.094955 -0.964478
vn 0.246506 -0.094955 -0.964478
vn 0.246506 -0.094955 -0.964478
vn -0.486577 -0.185609 -0.853693
vn -0.486577 -0.185609 -0.853694
vn -0.486577 -0.185609 -0.853693
vn 0.294160 -0.558608 -0.775517
vn 0.294160 -0.558608 -0.775517
vn 0.294160 -0.558608 -0.775517
vn 0.132565 -0.755817 -0.641224
vn 0.132565 -0.755817 -0.641224
vn 0.132565 -0.755817 -0.641224
vn 0.776695 0.200013 -0.597277
vn 0.776695 0.200013 -0.597277
vn 0.776695 0.200013 -0.597277
vn -0.315361 0.117765 -0.941636
vn -0.315361 0.117765 -0.941636
vn -0.315361 0.117765 -0.941636
vn 0.741304 -0.188961 0.644020
vn 0.741304 -0.188961 0.644020
vn 0.741304 -0.188961 0.644020
vn 0.181333 0.891164 -0.415867
vn 0.181333 0.891164 -0.415867
vn 0.181333 0.891164 -0.415867
vn 0.410087 0.451290 -0.792569
vn 0.410087 0.451290 -0.792569
vn 0.410087 0.451290 -0.792569
vn 0.115512 -0.945713 -0.303784
vn 0.115512 -0.945713 -0.303784
vn 0.115512 -0.945713 -0.303784
vn -0.710959 -0.702819 0.024116
vn -0.710959 -0.702819 0.024116
vn -0.710960 -0.702819 0.024116
vn 0.115702 -0.991171 0.064754
vn 0.115702 -0.991171 0.064754
vn 0.115702 -0.991171 0.064754
vn 0.166137 0.215111 -0.962354
vn 0.166137 0.215111 -0.962354
vn 0.166137 0.215111 -0.962354
vn 0.274706 -0.822301 -0.498355
vn 0.274706 -0.822301 -0.498355
vn 0.274706 -0.822301 -0.498355
vn 0.343593 -0.852863 0.393153
vn 0.343593 -0.852863 0.393153
vn 0.343593 -0.852863 0.393153
vn 0.718782 0.128720 -0.683215
vn 0.718782 0.128720 -0.683215
vn 0.718782 0.128720 -0.683215
vn -0.549291 -0.733137 -0.400985
vn -0.549291 -0.733137 -0.400985
vn -0.549291 -0.733137 -0.400985
vn 0.551141 -0.831761 -0.066454
vn 0.551141 -0.831761 -0.066454
vn 0.551141 -0.831761 -0.066454
vn -0.319744 -0.183350 0.929595
vn -0.319744 -0.183350 0.929595
vn -0.319744 -0.183350 0.929595
vn 0.459628 -0.884019 -0.085167
vn 0.459628 -0.884019 -0.085166
vn 0.459628 -0.884019 -0.085167
vn 0.615805 -0.786072 -0.053623
vn 0.615805 -0.786072 -0.053623
vn 0.615805 -0.786072 -0.053623
vn 0.560668 -0.823643 -0.085223
vn 0.560668 -0.823643 -0.085223
vn 0.560668 -0.823643 -0.085223
vn 0.820741 0.448376 -0.354038
vn 0.820741 0.448376 -0.354038
vn 0.820741 0.448376 -0.354038
vn -0.805180 0.130378 0.578521
vn -0.805180 0.130378 0.578521
vn -0.805180 0.130378 0.578521
vn -0.800588 0.595031 -0.070687
vn -0.800588 0.595031 -0.070687
vn -0.800588 0.595031 -0.070687
vn -0.976130 -0.182956 0.117039
vn -0.976130 -0.182956 0.117039
vn -0.976130 -0.182956 0.117039
vn -0.986507 -0.060341 0.152197
vn -0.986507 -0.060341 0.152197
vn -0.986507 -0.060341 0.152197
vn 0.199888 -0.074337 -0.976995
vn 0.199888 -0.074337 -0.976995
vn 0.199888 -0.074337 -0.976995
vn -0.481215 0.114213 -0.869130
vn -0.481215 0.114213 -0.869130
vn -0.481215 0.114213 -0.869130
vn -0.053469 -0.533319 -0.844223
vn -0.053469 -0.533319 -0.844223
vn -0.053469 -0.533319 -0.844223
vn -0.472451 0.879898 -0.050700
vn -0.472451 0.879898 -0.050700
vn -0.472451 0.879898 -0.050700
vn -0.693905 0.305759 -0.651926
vn -0.693905 0.305759 -0.651926
vn -0.693905 0.305759 -0.651926
vn -0.815932 -0.110550 -0.567479
vn -0.815932 -0.110550 -0.567479
vn -0.815932 -0.110550 -0.567479
vn -0.467339 -0.746034 -0.474371
vn -0.467339 -0.746034 -0.474371
vn -0.467339 -0.746034 -0.474371
vn -0.780924 -0.290478 -0.552974
vn -0.780924 -0.290478 -0.552974
vn -0.780924 -0.290478 -0.552974
vn -0.681043 0.059625 -0.729812
vn -0.681043 0.059625 -0.729812
vn -0.681043 0.059625 -0.729812
vn 0.239042 0.910129 0.338415
vn 0.239042 0.910129 0.338415
vn 0.239042 0.910129 0.338415
vn -0.177906 0.904359 -0.387923
vn -0.177906 0.904359 -0.387923
vn -0.177906 0.904359 -0.387923
vn 0.410189 0.624245 0.664878
vn 0.410189 0.624245 0.664878
vn 0.410189 0.624245 0.664878
vn 0.083868 -0.309579 0.947168
vn 0.083868 -0.309579 0.947168
vn 0.083868 -0.309579 0.947168
vn 0.140665 -0.737070 -0.661015
vn 0.140665 -0.737070 -0.661015
vn 0.140665 -0.737070 -0.661015
vn 0.884623 0.094877 0.456553
vn 0.884623 0.094877 0.456553
vn 0.884623 0.094877 0.456553
vn 0.404653 0.168213 -0.898866
vn 0.404653 0.168213 -0.898866
vn 0.404653 0.168213 -0.898866
s off
g pCube8
usemtl initialShadingGroup
f 53/1/1 63/2/2 69/3/3
f 17/37/4 25/38/5 70/39/6
f 34/40/7 25/38/8 17/37/9
f 34/68/10 65/69/11 23/70/12
f 32/137/13 51/138/14 60/139/15
f 32/140/16 33/141/17 51/142/18
f 40/132/19 16/131/20 15/134/21
f 67/87/22 37/85/23 1/89/24
f 1/97/25 73/98/26 67/99/27
f 34/68/28 62/71/29 65/69/30
f 73/65/31 3/56/32 67/62/33
f 13/67/34 3/56/35 73/65/36
f 23/43/37 21/49/38 18/46/39
f 13/101/40 11/107/41 3/108/42
f 20/80/43 52/78/44 69/77/45
f 69/77/46 52/78/47 41/79/48
f 26/60/49 72/58/50 4/61/51
f 26/60/52 3/56/53 72/58/54
f 4/61/55 72/58/56 7/59/57
f 7/59/58 72/58/59 68/53/60
f 24/109/61 10/110/62 5/111/63
f 8/112/64 10/110/65 38/114/66
f 8/112/67 38/114/68 6/115/69
f 6/115/70 5/111/71 8/112/72
f 7/123/73 68/126/74 6/115/75
f 68/53/76 5/54/77 6/57/78
f 6/115/79 44/119/80 7/123/81
f 7/59/82 44/66/83 59/63/84
f 59/63/85 4/61/86 7/59/87
f 42/5/88 69/3/89 63/2/90
f 14/102/91 13/101/92 27/100/93
f 35/7/94 12/4/95 53/1/96
f 35/7/97 14/11/98 12/4/99
f 53/1/100 12/4/101 63/2/102
f 43/14/103 38/10/104 69/3/105
f 38/10/106 28/6/107 69/3/108
f 41/19/109 43/14/110 69/3/111
f 6/115/112 38/114/113 44/119/114
f 38/114/115 43/122/116 44/119/117
f 46/26/118 39/15/119 64/23/120
f 5/111/121 10/110/122 8/112/123
f 62/71/124 9/73/125 65/69/126
f 71/72/127 62/71/128 34/68/129
f 32/91/130 60/92/131 33/93/132
f 10/22/133 66/18/134 38/10/135
f 36/17/136 29/21/137 64/23/138
f 63/2/139 12/4/140 57/8/141
f 28/6/142 53/1/143 69/3/144
f 3/56/145 11/51/146 68/53/147
f 58/47/148 51/41/149 33/50/150
f 13/101/151 33/103/152 60/105/153
f 2/25/154 49/29/155 50/27/156
f 50/27/157 48/31/158 46/26/159
f 49/29/160 61/35/161 9/32/162
f 21/49/163 68/53/164 18/46/165
f 5/54/166 22/52/167 55/55/168
f 55/113/169 24/109/170 5/111/171
f 14/102/172 33/103/173 13/101/174
f 39/15/175 14/11/176 35/7/177
f 14/102/178 39/104/179 33/103/180
f 39/104/181 58/106/182 33/103/183
f 27/100/184 13/101/185 73/98/186
f 16/42/187 70/39/188 15/45/189
f 2/25/190 50/27/191 29/21/192
f 17/37/193 16/42/194 71/44/195
f 71/44/196 34/40/197 17/37/198
f 16/42/199 17/37/200 70/39/201
f 28/6/202 38/10/203 30/9/204
f 25/38/205 34/40/206 23/43/207
f 23/43/208 18/46/209 25/38/210
f 59/63/211 19/64/212 26/60/213
f 67/62/214 26/60/215 19/64/216
f 20/80/217 37/85/218 19/82/219
f 19/82/220 52/78/221 20/80/222
f 65/116/223 9/124/224 61/120/225
f 35/7/226 53/1/227 31/12/228
f 61/120/229 54/117/230 65/116/231
f 22/52/232 21/49/233 23/43/234
f 5/54/235 21/49/236 22/52/237
f 68/53/238 11/51/239 18/46/240
f 52/78/241 19/82/242 59/84/243
f 60/48/244 18/46/245 11/51/246
f 58/28/247 39/15/248 46/26/249
f 26/94/250 4/95/251 59/96/252
f 26/60/253 67/62/254 3/56/255
f 3/56/256 68/53/257 72/58/258
f 51/41/259 18/46/260 60/48/261
f 51/41/262 25/38/263 18/46/264
f 65/116/265 24/109/266 55/113/267
f 11/107/268 13/101/269 60/105/270
f 12/4/271 27/13/272 57/8/273
f 27/13/274 12/4/275 14/11/276
f 52/78/277 59/84/278 44/83/279
f 23/43/280 55/55/281 22/52/282
f 23/118/283 65/116/284 55/113/285
f 30/9/286 53/1/287 28/6/288
f 36/17/289 30/9/290 29/21/291
f 30/9/292 31/12/293 53/1/294
f 15/45/295 70/39/296 51/41/297
f 39/15/298 31/12/299 36/17/300
f 39/15/301 35/7/302 31/12/303
f 31/12/304 30/9/305 36/17/306
f 29/21/307 30/9/308 66/18/309
f 42/88/310 57/90/311 56/86/312
f 48/31/313 40/30/314 46/26/315
f 20/80/316 56/86/317 37/85/318
f 27/100/319 73/98/320 1/97/321
f 27/13/322 1/16/323 57/8/324
f 49/29/325 54/36/326 61/35/327
f 49/127/328 2/125/329 54/117/330
f 2/125/331 66/121/332 54/117/333
f 40/30/334 58/28/335 46/26/336
f 30/9/337 38/10/338 66/18/339
f 54/117/340 66/121/341 24/109/342
f 1/16/343 56/20/344 57/8/345
f 24/24/346 66/18/347 10/22/348
f 43/81/349 41/79/350 52/78/351
f 68/53/352 21/49/353 5/54/354
f 42/128/355 20/129/356 69/130/357
f 56/86/358 20/80/359 42/88/360
f 52/78/361 44/83/362 43/81/363
f 67/87/364 19/82/365 37/85/366
f 45/74/367 16/75/368 47/76/369
f 71/72/370 16/75/371 45/74/372
f 71/72/373 45/74/374 62/71/375
f 62/71/376 45/74/377 9/73/378
f 39/15/379 36/17/380 64/23/381
f 46/26/382 64/23/383 50/27/384
f 64/23/385 29/21/386 50/27/387
f 16/131/388 40/132/389 47/133/390
f 47/133/391 40/132/392 48/135/393
f 50/27/394 47/33/395 48/31/396
f 9/32/397 50/27/398 49/29/399
f 9/32/400 45/34/401 50/27/402
f 45/34/403 47/33/404 50/27/405
f 58/47/406 15/45/407 51/41/408
f 40/132/409 15/134/410 58/136/411
f 51/41/412 70/39/413 25/38/414
f 65/116/415 54/117/416 24/109/417
f 2/25/418 29/21/419 66/18/420
f 37/85/421 56/86/422 1/89/423
f 57/8/424 42/5/425 63/2/426
